<svg width="143" height="42" viewBox="0 0 143 42" fill="none" xmlns="http://www.w3.org/2000/svg">
<g clip-path="url(#clip0_1805_6323)">
<path d="M137.988 42.0002H5.01232C2.24296 42.0002 0 39.7778 0 37.0337V4.96677C0 2.22271 2.24296 0.000244141 5.01232 0.000244141H137.988C140.757 0.000244141 143 2.22271 143 4.96677V37.0337C143 39.7778 140.757 42.0002 137.988 42.0002Z" fill="black"/>
<path d="M142.062 37.0338C142.062 39.2563 140.254 41.0479 138.011 41.0479H5.03522C2.79226 41.0479 0.961273 39.2563 0.961273 37.0338V4.96689C0.961273 2.74443 2.79226 0.930176 5.03522 0.930176H138.011C140.254 0.930176 142.085 2.72175 142.085 4.96689L142.062 37.0338Z" fill="black"/>
<path d="M31.9276 20.7734C31.9047 17.3943 34.7199 15.7388 34.8572 15.6708C33.2551 13.3576 30.7833 13.0401 29.8907 13.0175C27.8079 12.7907 25.7938 14.2648 24.7181 14.2648C23.6424 14.2648 21.9945 13.0401 20.2322 13.0855C17.9664 13.1308 15.8378 14.4235 14.6706 16.4419C12.2674 20.5693 14.0526 26.6244 16.3642 29.9354C17.5086 31.5682 18.859 33.3825 20.6213 33.3144C22.3378 33.2464 22.9787 32.2259 25.0614 32.2259C27.1213 32.2259 27.7164 33.3144 29.5245 33.2691C31.3783 33.2464 32.5456 31.6362 33.6442 29.9807C34.9716 28.1211 35.4981 26.2615 35.5209 26.1708C35.5209 26.1708 31.9734 24.8328 31.9276 20.7734ZM28.5403 10.8177C29.4558 9.66108 30.0966 8.11897 29.9135 6.53149C28.5632 6.59953 26.8924 7.4613 25.9311 8.57253C25.0843 9.57037 24.3061 11.1805 24.5121 12.7C26.0227 12.8134 27.579 11.9516 28.5403 10.8177Z" fill="white"/>
<path d="M137.988 0.000244141H66.7622L94.6619 42.0002H137.988C140.757 42.0002 143 39.7778 143 37.0337V4.96677C143 2.22271 140.757 0.000244141 137.988 0.000244141Z" fill="url(#paint0_linear_1805_6323)"/>
<path d="M56.8754 33.0878H54.4722L53.1448 28.9831H48.5673L47.3085 33.0878H44.974L49.5057 19.118H52.3208L56.8754 33.0878ZM52.7557 27.2595L51.5655 23.6083C51.4282 23.2455 51.1994 22.361 50.856 20.9777H50.8103C50.6729 21.5673 50.4441 22.4517 50.1465 23.6083L48.9793 27.2595H52.7557ZM68.5251 27.9172C68.5251 29.6407 68.0444 30.9787 67.106 31.9766C66.2592 32.861 65.2293 33.3146 63.9705 33.3146C62.6201 33.3146 61.6589 32.8384 61.0638 31.8859V37.1699H58.8208V26.307C58.8208 25.2412 58.7979 24.1299 58.7293 22.996H60.7205L60.8578 24.5835H60.9036C61.6589 23.3815 62.8032 22.7692 64.3367 22.7692C65.5268 22.7692 66.5339 23.2455 67.3349 24.1753C68.136 25.1504 68.5251 26.3977 68.5251 27.9172ZM66.2363 28.0079C66.2363 27.0327 66.0075 26.2163 65.5726 25.5813C65.092 24.9237 64.4282 24.5835 63.6043 24.5835C63.055 24.5835 62.5515 24.7649 62.0937 25.1278C61.636 25.4906 61.3384 25.9669 61.2011 26.5792C61.1325 26.806 61.1096 27.0327 61.0867 27.2595V28.9377C61.0867 29.6634 61.3155 30.2984 61.7733 30.7973C62.231 31.2962 62.8261 31.5457 63.5356 31.5457C64.3825 31.5457 65.0462 31.2282 65.5268 30.5705C66.0075 29.9355 66.2363 29.0738 66.2363 28.0079ZM80.2434 27.9172C80.2434 29.6407 79.7627 30.9787 78.8244 31.9766C77.9775 32.861 76.9476 33.3146 75.6888 33.3146C74.3384 33.3146 73.3772 32.8384 72.7821 31.8859V37.1699H70.5163V26.307C70.5163 25.2412 70.4934 24.1299 70.4247 22.996H72.4159L72.5532 24.5835H72.599C73.3543 23.3815 74.4987 22.7692 76.0321 22.7692C77.2222 22.7692 78.2293 23.2455 79.0303 24.1753C79.8314 25.1504 80.2434 26.3977 80.2434 27.9172ZM77.9318 28.0079C77.9318 27.0327 77.7029 26.2163 77.268 25.5813C76.7874 24.9237 76.1237 24.5835 75.2997 24.5835C74.7504 24.5835 74.2469 24.7649 73.7891 25.1278C73.3314 25.4906 73.0339 25.9669 72.8965 26.5792C72.8279 26.8513 72.7821 27.0781 72.7821 27.2595V28.9377C72.7821 29.6634 73.011 30.2984 73.4687 30.7973C73.9265 31.2962 74.5215 31.5457 75.231 31.5457C76.0779 31.5457 76.7416 31.2282 77.2222 30.5705C77.7029 29.9355 77.9318 29.0738 77.9318 28.0079ZM93.312 29.1645C93.312 30.3438 92.9001 31.3189 92.0532 32.0673C91.1377 32.8837 89.856 33.2919 88.2082 33.2919C86.6976 33.2919 85.4846 32.9971 84.5462 32.4301L85.0726 30.5705C86.0568 31.1602 87.1553 31.4323 88.3455 31.4323C89.1923 31.4323 89.856 31.2509 90.3367 30.8653C90.8173 30.4798 91.0462 29.9809 91.0462 29.3459C91.0462 28.779 90.8402 28.3027 90.4511 27.9172C90.062 27.5317 89.4212 27.1688 88.5057 26.8286C86.0339 25.9215 84.7979 24.5835 84.7979 22.8146C84.7979 21.658 85.2328 20.7282 86.1025 20.0025C86.9722 19.2768 88.1395 18.9139 89.5585 18.9139C90.8402 18.9139 91.9159 19.1407 92.7627 19.5716L92.1906 21.3859C91.3895 20.955 90.4969 20.7509 89.4898 20.7509C88.6888 20.7509 88.0708 20.955 87.6131 21.3405C87.2469 21.6807 87.0409 22.1116 87.0409 22.6105C87.0409 23.1548 87.2469 23.631 87.6818 23.9712C88.048 24.3114 88.7346 24.6515 89.7416 25.0597C90.9546 25.536 91.8472 26.1029 92.4194 26.7606C93.0374 27.3956 93.312 28.1893 93.312 29.1645ZM100.796 24.6969H98.3015V29.5954C98.3015 30.8427 98.7363 31.455 99.6289 31.455C100.041 31.455 100.361 31.4323 100.636 31.3416L100.705 33.0425C100.27 33.2012 99.6747 33.2919 98.9423 33.2919C98.0497 33.2919 97.3631 33.0198 96.8596 32.4755C96.356 31.9312 96.1043 31.0241 96.1043 29.7541V24.6742H94.6166V22.996H96.1043V21.1591L98.3244 20.5014V23.0187H100.819L100.796 24.6969ZM112.011 27.9625C112.011 29.5047 111.553 30.7746 110.661 31.7725C109.722 32.793 108.486 33.3146 106.93 33.3146C105.442 33.3146 104.252 32.8157 103.36 31.8405C102.467 30.8653 102.032 29.618 102.032 28.1213C102.032 26.5565 102.49 25.2865 103.405 24.2887C104.321 23.2908 105.557 22.7919 107.09 22.7919C108.578 22.7919 109.791 23.2908 110.684 24.266C111.576 25.2185 112.011 26.4658 112.011 27.9625ZM109.676 28.0079C109.676 27.0781 109.47 26.2844 109.081 25.6267C108.601 24.833 107.937 24.4247 107.044 24.4247C106.129 24.4247 105.442 24.833 104.962 25.6267C104.55 26.2844 104.367 27.1008 104.367 28.0533C104.367 28.9831 104.573 29.7768 104.962 30.4345C105.442 31.2282 106.129 31.6364 107.022 31.6364C107.891 31.6364 108.555 31.2282 109.059 30.4118C109.47 29.7314 109.676 28.9377 109.676 28.0079ZM119.358 24.969C119.129 24.9237 118.877 24.901 118.648 24.901C117.847 24.901 117.229 25.1958 116.817 25.7854C116.451 26.307 116.245 26.9647 116.245 27.7811V33.0651H113.979V26.171C113.979 25.1051 113.956 24.0619 113.911 22.996H115.879L115.97 24.9237H116.039C116.268 24.266 116.657 23.7217 117.161 23.3362C117.641 22.996 118.213 22.7919 118.786 22.7919C118.992 22.7919 119.175 22.8146 119.358 22.8373V24.969ZM129.474 27.577C129.474 27.9172 129.451 28.2574 129.382 28.5975H122.608C122.631 29.5954 122.951 30.3664 123.592 30.888C124.164 31.3643 124.897 31.5911 125.812 31.5911C126.819 31.5911 127.735 31.4323 128.559 31.1148L128.902 32.6569C127.941 33.0651 126.796 33.2692 125.492 33.2692C123.912 33.2692 122.676 32.8157 121.784 31.8859C120.891 30.9561 120.434 29.7314 120.434 28.1893C120.434 26.6699 120.845 25.3999 121.692 24.4021C122.562 23.3135 123.752 22.7919 125.24 22.7919C126.705 22.7919 127.826 23.3362 128.559 24.4021C129.176 25.2638 129.474 26.307 129.474 27.577ZM127.323 26.9874C127.345 26.3297 127.185 25.7401 126.888 25.2638C126.499 24.6288 125.904 24.334 125.08 24.334C124.347 24.334 123.729 24.6288 123.272 25.2412C122.905 25.7174 122.676 26.307 122.608 26.9874H127.323ZM47.9265 14.1742C47.3085 14.1742 46.7592 14.1515 46.3015 14.0835V7.32539C46.9423 7.23468 47.5832 7.18932 48.224 7.18932C50.8103 7.18932 52.0004 8.4593 52.0004 10.523C52.0004 12.8815 50.5814 14.1742 47.9265 14.1742ZM48.2927 8.05109C47.9494 8.05109 47.6518 8.07377 47.4001 8.11913V13.2444C47.5374 13.2671 47.7891 13.2671 48.1553 13.2671C49.849 13.2671 50.8103 12.3146 50.8103 10.523C50.8103 8.93554 49.9405 8.05109 48.2927 8.05109ZM55.7082 14.2196C54.2434 14.2196 53.305 13.131 53.305 11.6796C53.305 10.1602 54.2663 9.07161 55.7997 9.07161C57.2416 9.07161 58.2029 10.0921 58.2029 11.6116C58.2029 13.131 57.1958 14.2196 55.7082 14.2196ZM55.7539 9.86535C54.9529 9.86535 54.4265 10.6137 54.4265 11.6569C54.4265 12.6774 54.9529 13.4258 55.731 13.4258C56.5092 13.4258 57.0356 12.6321 57.0356 11.6342C57.0585 10.6137 56.5321 9.86535 55.7539 9.86535ZM66.5339 9.16232L64.9775 14.1062H63.9476L63.3067 11.9517C63.1465 11.4301 63.0092 10.8859 62.8948 10.3416H62.8719C62.7803 10.8859 62.643 11.4301 62.4599 11.9517L61.7733 14.1062H60.7434L59.2786 9.16232H60.4229L60.9951 11.5209C61.1325 12.0878 61.2469 12.6094 61.3384 13.1083H61.3613C61.4529 12.7001 61.5673 12.1785 61.7733 11.5209L62.4828 9.16232H63.3983L64.0849 11.4755C64.2451 12.0425 64.3825 12.5867 64.4969 13.1083H64.5198C64.5884 12.6094 64.7029 12.0651 64.8631 11.4755L65.481 9.16232H66.5339ZM72.2786 14.1062H71.18V11.2714C71.18 10.3869 70.8367 9.95606 70.1729 9.95606C69.5092 9.95606 69.0515 10.523 69.0515 11.158V14.1062H67.93V10.5684C67.93 10.1375 67.93 9.66124 67.8842 9.16232H68.8684L68.9141 9.93338H68.937C69.2346 9.41178 69.8525 9.07161 70.5163 9.07161C71.5691 9.07161 72.2557 9.86535 72.2557 11.158L72.2786 14.1062ZM75.3455 14.1062H74.224V6.87183H75.3455V14.1062ZM79.3965 14.2196C77.9317 14.2196 76.9934 13.131 76.9934 11.6796C76.9934 10.1602 77.9546 9.07161 79.4881 9.07161C80.93 9.07161 81.8913 10.0921 81.8913 11.6116C81.8913 13.131 80.8842 14.2196 79.3965 14.2196ZM79.4423 9.86535C78.6413 9.86535 78.1148 10.6137 78.1148 11.6569C78.1148 12.6774 78.6413 13.4258 79.4194 13.4258C80.1976 13.4258 80.724 12.6321 80.724 11.6342C80.724 10.6137 80.2205 9.86535 79.4423 9.86535ZM86.2627 14.1062L86.1712 13.5392H86.1483C85.805 13.9928 85.3244 14.2196 84.6835 14.2196C83.7909 14.2196 83.1501 13.6072 83.1501 12.7682C83.1501 11.5435 84.2258 10.9085 86.0796 10.9085V10.8178C86.0796 10.1602 85.7363 9.84267 85.0497 9.84267C84.5462 9.84267 84.1342 9.95606 83.7451 10.2055L83.5163 9.47982C83.974 9.185 84.5462 9.04893 85.2328 9.04893C86.5374 9.04893 87.2011 9.72928 87.2011 11.09V12.9042C87.2011 13.4031 87.224 13.7887 87.2698 14.0835L86.2627 14.1062ZM86.1025 11.6342C84.8666 11.6342 84.2487 11.9291 84.2487 12.6321C84.2487 13.1537 84.5691 13.4031 85.0039 13.4031C85.5761 13.4031 86.1025 12.9723 86.1025 12.4053V11.6342ZM92.5796 14.1062L92.5339 13.3124H92.511C92.1906 13.9021 91.6642 14.2196 90.9089 14.2196C89.6958 14.2196 88.8032 13.1764 88.8032 11.7023C88.8032 10.1602 89.7187 9.07161 91.0004 9.07161C91.6641 9.07161 92.1448 9.29839 92.4194 9.75196H92.4423V6.87183H93.5638V12.7682C93.5638 13.2444 93.5867 13.698 93.6096 14.1062H92.5796ZM92.4194 11.2034C92.4194 10.5003 91.9617 9.9107 91.2522 9.9107C90.4282 9.9107 89.9247 10.6364 89.9247 11.6569C89.9247 12.6548 90.4511 13.3351 91.2293 13.3351C91.9388 13.3351 92.4194 12.7228 92.4194 12.0198V11.2034ZM100.59 14.2196C99.1254 14.2196 98.187 13.131 98.187 11.6796C98.187 10.1602 99.1483 9.07161 100.682 9.07161C102.124 9.07161 103.085 10.0921 103.085 11.6116C103.085 13.131 102.078 14.2196 100.59 14.2196ZM100.636 9.86535C99.8349 9.86535 99.3314 10.6137 99.3314 11.6569C99.3314 12.6774 99.8578 13.4258 100.636 13.4258C101.414 13.4258 101.941 12.6321 101.941 11.6342C101.918 10.6137 101.414 9.86535 100.636 9.86535ZM109.059 14.1062H107.937V11.2714C107.937 10.3869 107.594 9.95606 106.93 9.95606C106.266 9.95606 105.831 10.523 105.831 11.158V14.1062H104.71V10.5684C104.71 10.1375 104.71 9.66124 104.664 9.16232H105.648L105.694 9.93338H105.717C106.014 9.41178 106.632 9.07161 107.296 9.07161C108.349 9.07161 109.036 9.86535 109.036 11.158V14.1062H109.059ZM116.52 9.97874H115.307V12.3826C115.307 12.9949 115.513 13.2898 115.948 13.2898C116.154 13.2898 116.314 13.2671 116.451 13.2444L116.474 14.0835C116.268 14.1742 115.97 14.1969 115.604 14.1969C114.735 14.1969 114.208 13.7206 114.208 12.4733V9.97874H113.476V9.16232H114.208V8.2552L115.307 7.9377V9.16232H116.52V9.97874ZM122.402 14.1062H121.303V11.2941C121.303 10.4096 120.96 9.95606 120.296 9.95606C119.724 9.95606 119.175 10.3416 119.175 11.1353V14.1288H118.076V6.87183H119.175V9.84267H119.198C119.541 9.29839 120.044 9.02625 120.708 9.02625C121.761 9.02625 122.402 9.84267 122.402 11.1353V14.1062ZM128.421 11.9064H125.08C125.103 12.8362 125.72 13.3805 126.659 13.3805C127.162 13.3805 127.597 13.2898 128.009 13.1537L128.192 13.9247C127.712 14.1288 127.162 14.2196 126.522 14.2196C124.965 14.2196 124.027 13.2444 124.027 11.725C124.027 10.2055 124.965 9.07161 126.384 9.07161C127.666 9.07161 128.467 10.0014 128.467 11.4301C128.467 11.5662 128.467 11.725 128.421 11.9064ZM127.414 11.1126C127.414 10.3416 127.025 9.79731 126.316 9.79731C125.675 9.79731 125.171 10.3416 125.103 11.1126H127.414Z" fill="white"/>
</g>
<defs>
<linearGradient id="paint0_linear_1805_6323" x1="104.887" y1="42.0993" x2="104.887" y2="-563.886" gradientUnits="userSpaceOnUse">
<stop stop-color="#1A1A1A" stop-opacity="0.1"/>
<stop offset="0.123" stop-color="#212121" stop-opacity="0.151"/>
<stop offset="0.308" stop-color="#353535" stop-opacity="0.227"/>
<stop offset="0.532" stop-color="#575757" stop-opacity="0.318"/>
<stop offset="0.783" stop-color="#858585" stop-opacity="0.421"/>
<stop offset="1" stop-color="#B3B3B3" stop-opacity="0.51"/>
</linearGradient>
<clipPath id="clip0_1805_6323">
<rect width="143" height="42" fill="white" transform="translate(0 0.000244141)"/>
</clipPath>
</defs>
</svg>
