<svg width="143" height="42" viewBox="0 0 143 42" fill="none" xmlns="http://www.w3.org/2000/svg">
<g clip-path="url(#clip0_1805_6330)">
<path d="M137.704 41.9926H5.29624C2.33031 41.9926 -6.10352e-05 39.6834 -6.10352e-05 36.7445V5.25549C-6.10352e-05 2.31652 2.33031 0.00732422 5.29624 0.00732422H137.704C140.67 0.00732422 143 2.31652 143 5.25549V36.7445C143 39.6834 140.67 41.9926 137.704 41.9926Z" fill="black"/>
<path d="M137.704 0.84703C140.14 0.84703 142.153 2.84133 142.153 5.25549V36.7445C142.153 39.1586 140.14 41.1529 137.704 41.1529H5.29624C2.85994 41.1529 0.847346 39.1586 0.847346 36.7445V5.25549C0.847346 2.84133 2.85994 0.84703 5.29624 0.84703H137.704ZM137.704 0.00732422H5.29624C2.33031 0.00732422 -6.10352e-05 2.42148 -6.10352e-05 5.25549V36.7445C-6.10352e-05 39.6834 2.33031 41.9926 5.29624 41.9926H137.704C140.67 41.9926 143 39.6834 143 36.7445V5.25549C143 2.42148 140.67 0.00732422 137.704 0.00732422Z" fill="black"/>
<path d="M50.2091 10.7138C50.2091 11.5535 49.9972 12.2882 49.4676 12.8131C48.8321 13.4428 48.0906 13.7577 47.1372 13.7577C46.1839 13.7577 45.4424 13.4428 44.8069 12.8131C44.1713 12.1833 43.8535 11.4485 43.8535 10.5039C43.8535 9.55919 44.1713 8.82445 44.8069 8.19467C45.4424 7.56489 46.1839 7.25 47.1372 7.25C47.561 7.25 47.9847 7.35496 48.4084 7.56489C48.8321 7.77482 49.1498 7.98474 49.3617 8.29963L48.8321 8.82445C48.4084 8.29963 47.8787 8.08971 47.1372 8.08971C46.5017 8.08971 45.8661 8.29963 45.4424 8.82445C44.9128 9.2443 44.701 9.87408 44.701 10.6088C44.701 11.3436 44.9128 11.9733 45.4424 12.3932C45.9721 12.8131 46.5017 13.1279 47.1372 13.1279C47.8787 13.1279 48.4084 12.918 48.938 12.3932C49.2558 12.0783 49.4676 11.6585 49.4676 11.1336H47.1372V10.2939H50.2091V10.7138ZM55.0817 8.08971H52.2217V10.084H54.8698V10.8188H52.2217V12.8131H55.0817V13.6528H51.3743V7.35496H55.0817V8.08971ZM58.5772 13.6528H57.7298V8.08971H55.9291V7.35496H60.378V8.08971H58.5772V13.6528ZM63.4498 13.6528V7.35496H64.2972V13.6528H63.4498ZM67.8987 13.6528H67.0513V8.08971H65.2506V7.35496H69.5935V8.08971H67.7928V13.6528H67.8987ZM77.9617 12.8131C77.3261 13.4428 76.5847 13.7577 75.6313 13.7577C74.678 13.7577 73.9365 13.4428 73.3009 12.8131C72.6654 12.1833 72.3476 11.4485 72.3476 10.5039C72.3476 9.55919 72.6654 8.82445 73.3009 8.19467C73.9365 7.56489 74.678 7.25 75.6313 7.25C76.5847 7.25 77.3261 7.56489 77.9617 8.19467C78.5972 8.82445 78.915 9.55919 78.915 10.5039C78.915 11.4485 78.5972 12.1833 77.9617 12.8131ZM73.9365 12.2882C74.3602 12.7081 74.9958 13.023 75.6313 13.023C76.2669 13.023 76.9024 12.8131 77.3261 12.2882C77.7498 11.8684 78.0676 11.2386 78.0676 10.5039C78.0676 9.76912 77.8558 9.13934 77.3261 8.71949C76.9024 8.29963 76.2669 7.98474 75.6313 7.98474C74.9958 7.98474 74.3602 8.19467 73.9365 8.71949C73.5128 9.13934 73.195 9.76912 73.195 10.5039C73.195 11.2386 73.4069 11.8684 73.9365 12.2882ZM80.0802 13.6528V7.35496H81.0335L84.1054 12.2882V7.35496H84.9528V13.6528H84.1054L80.8217 8.50956V13.6528H80.0802Z" fill="white" stroke="white" stroke-width="0.305861" stroke-miterlimit="10"/>
<path d="M72.1354 22.8891C69.5932 22.8891 67.5806 24.7784 67.5806 27.4025C67.5806 29.9216 69.5932 31.9159 72.1354 31.9159C74.6776 31.9159 76.6902 30.0266 76.6902 27.4025C76.6902 24.6735 74.6776 22.8891 72.1354 22.8891ZM72.1354 30.0266C70.7583 30.0266 69.5931 28.872 69.5931 27.2975C69.5931 25.7231 70.7583 24.5685 72.1354 24.5685C73.5124 24.5685 74.6776 25.6181 74.6776 27.2975C74.6776 28.872 73.5124 30.0266 72.1354 30.0266ZM62.2843 22.8891C59.742 22.8891 57.7294 24.7784 57.7294 27.4025C57.7294 29.9216 59.742 31.9159 62.2843 31.9159C64.8265 31.9159 66.8391 30.0266 66.8391 27.4025C66.8391 24.6735 64.8265 22.8891 62.2843 22.8891ZM62.2843 30.0266C60.9072 30.0266 59.742 28.872 59.742 27.2975C59.742 25.7231 60.9072 24.5685 62.2843 24.5685C63.6613 24.5685 64.8265 25.6181 64.8265 27.2975C64.8265 28.872 63.6613 30.0266 62.2843 30.0266ZM50.5265 24.2536V26.1429H55.0813C54.9754 27.1926 54.5517 28.0323 54.022 28.5571C53.3865 29.1869 52.3272 29.9216 50.5265 29.9216C47.6665 29.9216 45.548 27.7174 45.548 24.8834C45.548 22.0494 47.7724 19.8451 50.5265 19.8451C52.0094 19.8451 53.1746 20.4749 54.022 21.2097L55.3991 19.8451C54.2339 18.7955 52.7509 17.9558 50.6324 17.9558C46.8191 17.9558 43.5354 21.1047 43.5354 24.8834C43.5354 28.6621 46.8191 31.811 50.6324 31.811C52.7509 31.811 54.2339 31.1812 55.505 29.8167C56.7761 28.5571 57.1998 26.7727 57.1998 25.4082C57.1998 24.9883 57.1998 24.5685 57.0939 24.2536H50.5265ZM98.6169 25.7231C98.1932 24.6735 97.1339 22.8891 94.8035 22.8891C92.4732 22.8891 90.5665 24.6735 90.5665 27.4025C90.5665 29.9216 92.4732 31.9159 95.0154 31.9159C97.028 31.9159 98.2991 30.6564 98.7228 29.9216L97.2398 28.872C96.7102 29.6067 96.0746 30.1315 95.0154 30.1315C93.9561 30.1315 93.3206 29.7117 92.7909 28.767L98.8287 26.2479L98.6169 25.7231ZM92.4732 27.1926C92.4732 25.5132 93.8502 24.5685 94.8035 24.5685C95.545 24.5685 96.2865 24.9883 96.4983 25.5132L92.4732 27.1926ZM87.4946 31.4961H89.5072V18.3757H87.4946V31.4961ZM84.3169 23.8338C83.7872 23.3089 82.9398 22.7841 81.8806 22.7841C79.6561 22.7841 77.5376 24.7784 77.5376 27.2975C77.5376 29.8167 79.5502 31.706 81.8806 31.706C82.9398 31.706 83.7872 31.1812 84.2109 30.6564H84.3169V31.2861C84.3169 32.9656 83.3635 33.9102 81.8806 33.9102C80.7154 33.9102 79.868 33.0705 79.6561 32.3358L77.9613 33.0705C78.4909 34.2251 79.762 35.6946 81.9865 35.6946C84.3169 35.6946 86.2235 34.3301 86.2235 31.0762V23.099H84.3169V23.8338ZM81.9865 30.0266C80.6095 30.0266 79.4443 28.872 79.4443 27.2975C79.4443 25.7231 80.6095 24.5685 81.9865 24.5685C83.3635 24.5685 84.4228 25.7231 84.4228 27.2975C84.4228 28.872 83.3635 30.0266 81.9865 30.0266ZM107.832 18.3757H103.066V31.4961H105.078V26.5628H107.832C110.057 26.5628 112.175 24.9883 112.175 22.4692C112.175 19.9501 110.057 18.3757 107.832 18.3757ZM107.938 24.6735H105.078V20.16H107.938C109.421 20.16 110.269 21.4196 110.269 22.3643C110.163 23.5189 109.315 24.6735 107.938 24.6735ZM120.12 22.7841C118.637 22.7841 117.154 23.4139 116.624 24.7784L118.425 25.5132C118.849 24.7784 119.484 24.5685 120.226 24.5685C121.285 24.5685 122.238 25.1983 122.344 26.2479V26.3529C122.026 26.1429 121.179 25.8281 120.332 25.8281C118.425 25.8281 116.518 26.8777 116.518 28.767C116.518 30.5514 118.107 31.706 119.802 31.706C121.179 31.706 121.815 31.0762 122.344 30.4464H122.45V31.4961H124.357V26.4578C124.145 24.1486 122.344 22.7841 120.12 22.7841ZM119.908 30.0266C119.272 30.0266 118.319 29.7117 118.319 28.872C118.319 27.8224 119.484 27.5075 120.438 27.5075C121.285 27.5075 121.709 27.7174 122.238 27.9273C122.026 29.1869 120.967 30.0266 119.908 30.0266ZM131.03 23.099L128.806 28.767H128.7L126.369 23.099H124.251L127.746 31.0762L125.734 35.4847H127.746L133.149 23.099H131.03ZM113.235 31.4961H115.247V18.3757H113.235V31.4961Z" fill="white"/>
<path d="M11.0168 7.87964C10.699 8.19453 10.593 8.71934 10.593 9.34912V32.546C10.593 33.1758 10.8049 33.7006 11.1227 34.0155L11.2286 34.1205L24.3634 21.105V20.8951L11.0168 7.87964Z" fill="url(#paint0_linear_1805_6330)"/>
<path d="M28.6002 25.5134L24.2572 21.2099V20.895L28.6002 16.5916L28.7061 16.6965L33.8965 19.6355C35.3794 20.4752 35.3794 21.8397 33.8965 22.6794L28.6002 25.5134Z" fill="url(#paint1_linear_1805_6330)"/>
<path d="M28.7066 25.4082L24.2577 20.9998L11.0169 34.1202C11.5466 34.645 12.288 34.645 13.2414 34.2251L28.7066 25.4082Z" fill="url(#paint2_linear_1805_6330)"/>
<path d="M28.7066 16.5917L13.2414 7.87971C12.288 7.35489 11.5466 7.45986 11.0169 7.98467L24.2577 21.0001L28.7066 16.5917Z" fill="url(#paint3_linear_1805_6330)"/>
<path opacity="0.2" d="M28.6006 25.3037L13.2414 33.9107C12.394 34.4355 11.6525 34.3306 11.1229 33.9107L11.0169 34.0157L11.1229 34.1206C11.6525 34.5405 12.394 34.6454 13.2414 34.1206L28.6006 25.3037Z" fill="black"/>
<path opacity="0.12" d="M11.0168 33.9102C10.699 33.5953 10.593 33.0705 10.593 32.4408V32.5457C10.593 33.1755 10.8049 33.7003 11.1227 34.0152V33.9102H11.0168ZM33.8968 22.3643L28.6005 25.3032L28.7064 25.4082L33.8968 22.4692C34.6382 22.0494 34.956 21.5246 34.956 20.9998C34.956 21.5246 34.5323 21.9444 33.8968 22.3643Z" fill="black"/>
<path opacity="0.25" d="M13.241 7.98456L33.8966 19.6355C34.5322 20.0553 34.9559 20.4752 34.9559 21C34.9559 20.4752 34.6381 19.9504 33.8966 19.5305L13.241 7.8796C11.7581 7.03989 10.5929 7.66967 10.5929 9.34908V9.45405C10.5929 7.8796 11.7581 7.14485 13.241 7.98456Z" fill="white"/>
</g>
<defs>
<linearGradient id="paint0_linear_1805_6330" x1="23.0923" y1="9.14969" x2="5.47705" y2="26.9255" gradientUnits="userSpaceOnUse">
<stop stop-color="#00A0FF"/>
<stop offset="0.007" stop-color="#00A1FF"/>
<stop offset="0.26" stop-color="#00BEFF"/>
<stop offset="0.512" stop-color="#00D2FF"/>
<stop offset="0.76" stop-color="#00DFFF"/>
<stop offset="1" stop-color="#00E3FF"/>
</linearGradient>
<linearGradient id="paint1_linear_1805_6330" x1="35.8391" y1="21.0011" x2="10.2082" y2="21.0011" gradientUnits="userSpaceOnUse">
<stop stop-color="#FFE000"/>
<stop offset="0.409" stop-color="#FFBD00"/>
<stop offset="0.775" stop-color="#FFA500"/>
<stop offset="1" stop-color="#FF9C00"/>
</linearGradient>
<linearGradient id="paint2_linear_1805_6330" x1="26.2989" y1="23.4097" x2="2.41233" y2="47.5153" gradientUnits="userSpaceOnUse">
<stop stop-color="#FF3A44"/>
<stop offset="1" stop-color="#C31162"/>
</linearGradient>
<linearGradient id="paint3_linear_1805_6330" x1="7.73006" y1="0.1922" x2="18.397" y2="10.957" gradientUnits="userSpaceOnUse">
<stop stop-color="#32A071"/>
<stop offset="0.069" stop-color="#2DA771"/>
<stop offset="0.476" stop-color="#15CF74"/>
<stop offset="0.801" stop-color="#06E775"/>
<stop offset="1" stop-color="#00F076"/>
</linearGradient>
<clipPath id="clip0_1805_6330">
<rect width="143" height="42" fill="white"/>
</clipPath>
</defs>
</svg>
