<svg width="20" height="21" viewBox="0 0 20 21" fill="none" xmlns="http://www.w3.org/2000/svg">
<path fill-rule="evenodd" clip-rule="evenodd" d="M18.8887 20.2053C19.498 20.2053 19.992 19.7298 19.992 19.1433V2.02489C19.992 1.43823 19.4979 0.962891 18.8887 0.962891H1.10337C0.493858 0.962891 0 1.4383 0 2.02489V19.1433C0 19.7298 0.493858 20.2052 1.10337 20.2052H18.8887V20.2053ZM13.7942 20.2053V12.7536H16.3928L16.7819 9.84954H13.7941V7.99541C13.7941 7.15461 14.0366 6.58166 15.2894 6.58166L16.887 6.58094V3.98355C16.6107 3.94823 15.6622 3.86914 14.559 3.86914C12.2554 3.86914 10.6783 5.22248 10.6783 7.70789V9.84954H8.07296V12.7536H10.6783V20.2052H13.7942V20.2053Z" fill="black" fill-opacity="0.4"/>
</svg>
