<svg width="20" height="20" viewBox="0 0 20 20" fill="none" xmlns="http://www.w3.org/2000/svg">
<g clip-path="url(#clip0_836_8651)">
<path d="M6.66747 9.625C6.66747 7.85315 8.15945 6.41641 10.0004 6.41641C11.8414 6.41641 13.3341 7.85315 13.3341 9.625C13.3341 11.3968 11.8414 12.8336 10.0004 12.8336C8.15945 12.8336 6.66747 11.3968 6.66747 9.625ZM4.86531 9.625C4.86531 12.3547 7.16429 14.5673 10.0004 14.5673C12.8365 14.5673 15.1355 12.3547 15.1355 9.625C15.1355 6.89535 12.8365 4.68268 10.0004 4.68268C7.16429 4.68268 4.86531 6.89535 4.86531 9.625ZM14.1387 4.48671C14.1385 5.1246 14.6755 5.64192 15.3383 5.64218C16.0011 5.64243 16.5386 5.12553 16.5388 4.48764C16.5391 3.84975 16.002 3.33243 15.3393 3.33217H15.3388C14.6763 3.33247 14.1393 3.84913 14.1387 4.48671ZM5.96024 17.4595C4.98524 17.4168 4.4553 17.2605 4.10312 17.1284C3.63623 16.9535 3.30309 16.7451 2.95284 16.4085C2.60258 16.0718 2.38578 15.7515 2.20481 15.3021C2.06752 14.9633 1.90512 14.4531 1.86079 13.5147C1.81231 12.5002 1.80263 12.1954 1.80263 9.62508C1.80263 7.05474 1.81311 6.75082 1.86079 5.73542C1.9052 4.79702 2.0688 4.28782 2.20481 3.94802C2.38658 3.49865 2.60306 3.17802 2.95284 2.84091C3.30261 2.50381 3.63543 2.29514 4.10312 2.12097C4.45514 1.98883 4.98524 1.83252 5.96024 1.78986C7.01436 1.7432 7.33101 1.73389 10.0004 1.73389C12.6698 1.73389 12.9868 1.74397 14.0418 1.78986C15.0168 1.8326 15.5458 1.99006 15.8989 2.12097C16.3658 2.29514 16.6989 2.50427 17.0492 2.84091C17.3994 3.17756 17.6154 3.49865 17.7972 3.94802C17.9345 4.28682 18.0969 4.79702 18.1412 5.73542C18.1897 6.75082 18.1994 7.05474 18.1994 9.62508C18.1994 12.1954 18.1897 12.4993 18.1412 13.5147C18.0968 14.4531 17.9336 14.9632 17.7972 15.3021C17.6154 15.7515 17.3989 16.0721 17.0492 16.4085C16.6994 16.7448 16.3658 16.9535 15.8989 17.1284C15.5469 17.2605 15.0168 17.4169 14.0418 17.4595C12.9876 17.5062 12.671 17.5155 10.0004 17.5155C7.32981 17.5155 7.01404 17.5062 5.96024 17.4595ZM5.87744 0.058289C4.81283 0.104951 4.08536 0.267421 3.45006 0.505351C2.79211 0.751058 2.23513 1.0807 1.67855 1.61554C1.12196 2.15038 0.780351 2.6873 0.525061 3.32055C0.277851 3.93239 0.109044 4.63217 0.0605624 5.6568C0.0112804 6.68306 0 7.01116 0 9.625C0 12.2388 0.0112804 12.5669 0.0605624 13.5932C0.109044 14.6179 0.277851 15.3176 0.525061 15.9295C0.780351 16.5623 1.12204 17.0999 1.67855 17.6345C2.23505 18.1691 2.79211 18.4982 3.45006 18.7446C4.08656 18.9826 4.81283 19.1451 5.87744 19.1917C6.94428 19.2384 7.28461 19.25 10.0004 19.25C12.7162 19.25 13.0571 19.2391 14.1234 19.1917C15.188 19.1451 15.915 18.9826 16.5507 18.7446C17.2083 18.4982 17.7657 18.1693 18.3223 17.6345C18.8788 17.0996 19.2197 16.5623 19.4757 15.9295C19.7229 15.3176 19.8926 14.6178 19.9402 13.5932C19.9887 12.5662 20 12.2388 20 9.625C20 7.01116 19.9887 6.68306 19.9402 5.6568C19.8918 4.63209 19.7229 3.93201 19.4757 3.32055C19.2197 2.68769 18.878 2.15123 18.3223 1.61554C17.7666 1.07985 17.2083 0.751058 16.5515 0.505351C15.915 0.267421 15.188 0.104181 14.1242 0.058289C13.0579 0.011627 12.717 0 10.0012 0C7.28541 0 6.94428 0.010857 5.87744 0.058289Z" fill="#777777"/>
</g>
<defs>
<clipPath id="clip0_836_8651">
<rect width="20" height="19.25" fill="white"/>
</clipPath>
</defs>
</svg>
