<svg width="20" height="20" viewBox="0 0 20 20" fill="none" xmlns="http://www.w3.org/2000/svg">
<path d="M4.47679 19.2496H0.330357V6.39762H4.47679V19.2496ZM2.40134 4.64449C1.07545 4.64449 0 3.58746 0 2.31129C9.49017e-09 1.6983 0.252998 1.11041 0.703336 0.676961C1.15367 0.24351 1.76446 0 2.40134 0C3.03821 0 3.649 0.24351 4.09934 0.676961C4.54968 1.11041 4.80268 1.6983 4.80268 2.31129C4.80268 3.58746 3.72679 4.64449 2.40134 4.64449ZM19.9955 19.2496H15.858V12.9933C15.858 11.5023 15.8268 9.59019 13.7022 9.59019C11.5464 9.59019 11.2161 11.2101 11.2161 12.8859V19.2496H7.07411V6.39762H11.0509V8.15074H11.1089C11.6625 7.14098 13.0147 6.07535 15.0321 6.07535C19.2286 6.07535 20 8.73512 20 12.1898V19.2496H19.9955Z" fill="black" fill-opacity="0.4"/>
</svg>
