<svg width="20" height="17" viewBox="0 0 20 17" fill="none" xmlns="http://www.w3.org/2000/svg">
<path d="M19.6878 2.70867C18.9636 3.01796 18.1858 3.22704 17.368 3.32102C18.2027 2.83998 18.842 2.0777 19.1439 1.17047C18.3511 1.6237 17.4834 1.94277 16.5786 2.11383C15.8423 1.35838 14.7922 0.886719 13.6305 0.886719C11.4007 0.886719 9.59235 2.62658 9.59235 4.77402C9.59235 5.07829 9.62795 5.37514 9.6964 5.66014C6.33973 5.49777 3.36382 3.95018 1.37188 1.59862C1.02407 2.17294 0.824976 2.84068 0.824976 3.55314C0.824976 4.90162 1.53808 6.0914 2.62163 6.78835C1.98018 6.76922 1.35282 6.60257 0.791977 6.30234V6.35147C0.791977 8.23508 2.18393 9.8057 4.03167 10.1629C3.69224 10.2524 3.33603 10.2992 2.96752 10.2992C2.70696 10.2992 2.45418 10.2755 2.20723 10.2307C2.7212 11.7746 4.21277 12.8984 5.9796 12.9302C4.59735 13.9731 2.85564 14.5948 0.963958 14.5948C0.638138 14.5948 0.316124 14.5761 0 14.5394C1.78763 15.6427 3.91015 16.2867 6.19105 16.2867C13.6195 16.2867 17.6822 10.3633 17.6822 5.22646C17.6822 5.05782 17.6784 4.89043 17.6699 4.72365C18.4615 4.17259 19.1447 3.49028 19.6878 2.70867Z" fill="black" fill-opacity="0.4"/>
</svg>
